<?xml version="1.0" encoding="utf-8"?>
<svg width="500" zoomAndPan="magnify" viewBox="0 66.797 375 236.243" height="500" preserveAspectRatio="xMidYMid meet" version="1.0" xmlns="http://www.w3.org/2000/svg">
  <defs>
    <clipPath id="id1">
      <path d="M 0 67.5 L 371 67.5 L 371 303 L 0 303 Z M 0 67.5 " clip-rule="nonzero"/>
    </clipPath>
    <clipPath id="id2">
      <path d="M 255.796875 106.328125 L 337.546875 106.328125 L 337.546875 196 L 255.796875 196 Z M 255.796875 106.328125 " clip-rule="nonzero"/>
    </clipPath>
  </defs>
  <g clip-path="url(#id1)">
    <path fill="#ffffff" d="M 364.589844 246.609375 L 341.089844 246.609375 C 339.109375 243.238281 336.625 240.253906 333.71875 237.683594 L 333.71875 221.929688 L 352.25 221.929688 C 354.777344 221.929688 357.050781 220.371094 357.976562 218.054688 L 358.859375 215.910156 C 374.824219 176.152344 374.824219 131.761719 358.820312 92.046875 L 357.976562 89.984375 C 357.050781 87.628906 354.777344 86.113281 352.25 86.113281 L 333.71875 86.113281 L 333.71875 73.6875 C 333.71875 70.277344 330.9375 67.496094 327.53125 67.496094 L 290.46875 67.496094 C 287.054688 67.496094 284.277344 70.277344 284.277344 73.6875 L 284.277344 86.027344 L 222.578125 86.027344 L 222.578125 79.878906 C 222.578125 76.464844 219.800781 73.6875 216.386719 73.6875 C 212.976562 73.6875 210.195312 76.464844 210.195312 79.878906 L 210.195312 86.070312 L 185.519531 86.070312 L 185.519531 79.878906 C 185.519531 76.464844 182.738281 73.6875 179.324219 73.6875 C 175.914062 73.6875 173.136719 76.464844 173.136719 79.878906 L 173.136719 86.070312 L 154.605469 86.070312 C 152.078125 86.070312 149.761719 87.628906 148.835938 89.984375 L 147.617188 93.1875 C 131.90625 133.027344 132.199219 177.414062 148.457031 217.089844 L 148.878906 218.097656 C 149.804688 220.414062 152.078125 221.929688 154.5625 221.929688 L 173.09375 221.929688 L 173.09375 246.652344 L 129.925781 246.652344 L 129.925781 116.9375 C 129.925781 113.527344 127.148438 110.75 123.734375 110.75 L 55.804688 110.75 C 53.785156 110.75 51.886719 111.71875 50.75 113.402344 L 7.496094 175.140625 C 6.78125 176.195312 6.363281 177.414062 6.363281 178.679688 L 6.363281 246.609375 C 2.953125 246.609375 0.171875 249.390625 0.171875 252.800781 L 0.171875 277.523438 C 0.171875 280.933594 2.953125 283.714844 6.363281 283.714844 L 36.09375 283.714844 C 46.285156 301.402344 68.863281 307.507812 86.546875 297.316406 C 92.191406 294.074219 96.90625 289.355469 100.148438 283.714844 L 196.679688 283.714844 C 206.871094 301.402344 229.441406 307.507812 247.132812 297.316406 C 252.773438 294.074219 257.492188 289.355469 260.734375 283.714844 L 276.949219 283.714844 C 287.140625 301.402344 309.714844 307.507812 327.402344 297.316406 C 333.042969 294.074219 337.761719 289.355469 341.007812 283.714844 L 364.546875 283.714844 C 367.957031 283.714844 370.738281 280.933594 370.738281 277.523438 L 370.738281 252.800781 C 370.78125 249.390625 368 246.609375 364.589844 246.609375 Z M 296.660156 79.878906 L 321.378906 79.878906 L 321.378906 86.070312 L 296.660156 86.070312 Z M 185.519531 123.128906 L 210.238281 123.128906 L 210.238281 135.46875 L 185.519531 135.46875 Z M 210.195312 110.75 L 185.519531 110.75 L 185.519531 98.410156 L 210.238281 98.410156 L 210.238281 110.75 Z M 158.859375 98.410156 L 173.179688 98.410156 L 173.179688 154 C 173.179688 157.410156 175.957031 160.191406 179.367188 160.191406 C 182.78125 160.191406 185.558594 157.410156 185.558594 154 L 185.558594 147.808594 L 210.28125 147.808594 L 210.28125 154 C 210.28125 157.410156 213.058594 160.191406 216.472656 160.191406 C 219.882812 160.191406 222.664062 157.410156 222.664062 154 L 222.664062 98.410156 L 348.164062 98.410156 C 362.019531 134.164062 362.019531 173.835938 348.164062 209.589844 L 158.816406 209.589844 C 144.960938 173.792969 144.960938 134.164062 158.859375 98.410156 Z M 185.519531 221.929688 L 321.378906 221.929688 L 321.378906 230.183594 C 321.296875 230.183594 321.210938 230.144531 321.128906 230.101562 C 319.863281 229.679688 318.558594 229.386719 317.25 229.09375 C 316.578125 228.921875 315.902344 228.710938 315.191406 228.585938 C 311.441406 227.953125 307.609375 227.914062 303.816406 228.460938 C 303.269531 228.542969 302.722656 228.671875 302.175781 228.796875 C 301.039062 229.007812 299.902344 229.21875 298.765625 229.554688 C 298.132812 229.722656 297.542969 229.976562 296.910156 230.183594 C 295.898438 230.523438 294.890625 230.898438 293.964844 231.320312 C 293.332031 231.574219 292.785156 231.910156 292.152344 232.207031 C 291.226562 232.671875 290.296875 233.175781 289.414062 233.722656 C 288.867188 234.058594 288.320312 234.4375 287.773438 234.816406 C 286.886719 235.410156 286.085938 236.082031 285.246094 236.714844 C 284.738281 237.132812 284.277344 237.554688 283.769531 237.976562 C 282.972656 238.691406 282.210938 239.492188 281.496094 240.292969 C 281.074219 240.757812 280.65625 241.21875 280.277344 241.726562 C 279.558594 242.609375 278.925781 243.492188 278.296875 244.417969 C 277.960938 244.925781 277.578125 245.429688 277.242188 245.976562 C 277.117188 246.1875 276.949219 246.398438 276.824219 246.609375 L 260.777344 246.609375 C 260.652344 246.398438 260.523438 246.230469 260.355469 245.976562 C 259.976562 245.347656 259.554688 244.796875 259.175781 244.210938 C 258.585938 243.367188 258.039062 242.570312 257.363281 241.765625 C 256.902344 241.21875 256.4375 240.671875 255.933594 240.125 C 255.257812 239.410156 254.585938 238.691406 253.867188 238.019531 C 253.324219 237.515625 252.773438 237.050781 252.226562 236.585938 C 251.46875 235.953125 250.710938 235.367188 249.910156 234.816406 C 249.28125 234.394531 248.730469 234.019531 248.101562 233.636719 C 247.257812 233.132812 246.375 232.628906 245.488281 232.207031 C 244.855469 231.871094 244.269531 231.574219 243.636719 231.28125 C 242.707031 230.859375 241.742188 230.523438 240.730469 230.183594 C 240.097656 229.976562 239.507812 229.722656 238.875 229.554688 C 237.78125 229.257812 236.644531 229.007812 235.507812 228.796875 C 234.960938 228.710938 234.414062 228.542969 233.863281 228.460938 C 230.410156 227.953125 226.914062 227.953125 223.464844 228.460938 C 222.914062 228.542969 222.367188 228.671875 221.820312 228.796875 C 220.683594 229.007812 219.546875 229.21875 218.410156 229.554688 C 217.777344 229.722656 217.1875 229.976562 216.554688 230.183594 C 215.542969 230.523438 214.535156 230.898438 213.609375 231.320312 C 212.976562 231.574219 212.429688 231.910156 211.796875 232.207031 C 210.871094 232.671875 209.945312 233.175781 209.058594 233.722656 C 208.511719 234.058594 207.964844 234.4375 207.417969 234.816406 C 206.53125 235.410156 205.734375 236.082031 204.890625 236.714844 C 204.382812 237.132812 203.921875 237.554688 203.417969 237.976562 C 202.617188 238.691406 201.855469 239.492188 201.140625 240.292969 C 200.71875 240.757812 200.300781 241.21875 199.921875 241.726562 C 199.207031 242.609375 198.574219 243.492188 197.941406 244.417969 C 197.605469 244.925781 197.226562 245.429688 196.890625 245.976562 C 196.761719 246.1875 196.59375 246.398438 196.46875 246.609375 L 185.519531 246.609375 Z M 18.746094 180.660156 L 59.003906 123.128906 L 117.542969 123.128906 L 117.542969 246.652344 L 100.277344 246.652344 C 100.148438 246.441406 100.023438 246.273438 99.855469 246.019531 C 99.476562 245.390625 99.054688 244.839844 98.675781 244.25 C 98.085938 243.410156 97.539062 242.609375 96.867188 241.808594 C 96.402344 241.261719 95.941406 240.714844 95.433594 240.167969 C 94.761719 239.449219 94.085938 238.734375 93.371094 238.058594 C 92.824219 237.554688 92.277344 237.09375 91.726562 236.628906 C 90.972656 235.996094 90.210938 235.410156 89.410156 234.859375 C 88.78125 234.4375 88.234375 234.058594 87.601562 233.679688 C 86.757812 233.175781 85.875 232.671875 84.988281 232.25 C 84.355469 231.910156 83.769531 231.617188 83.136719 231.320312 C 82.210938 230.898438 81.242188 230.5625 80.230469 230.226562 C 79.601562 230.015625 79.007812 229.765625 78.378906 229.597656 C 77.285156 229.300781 76.144531 229.050781 75.007812 228.839844 C 74.460938 228.753906 73.914062 228.585938 73.367188 228.5 C 69.914062 227.996094 66.417969 227.996094 62.964844 228.5 C 62.417969 228.585938 61.867188 228.710938 61.320312 228.839844 C 60.183594 229.050781 59.046875 229.257812 57.910156 229.597656 C 57.28125 229.765625 56.6875 230.015625 56.058594 230.226562 C 55.046875 230.5625 54.035156 230.941406 53.109375 231.363281 C 52.476562 231.617188 51.929688 231.953125 51.296875 232.25 C 50.371094 232.710938 49.445312 233.214844 48.558594 233.765625 C 48.011719 234.101562 47.464844 234.480469 46.917969 234.859375 C 46.03125 235.449219 45.234375 236.125 44.390625 236.753906 C 43.886719 237.175781 43.421875 237.597656 42.917969 238.019531 C 42.117188 238.734375 41.359375 239.535156 40.644531 240.335938 C 40.222656 240.796875 39.800781 241.261719 39.421875 241.765625 C 38.707031 242.652344 38.074219 243.535156 37.441406 244.460938 C 37.105469 244.96875 36.726562 245.472656 36.390625 246.019531 C 36.261719 246.230469 36.09375 246.441406 35.96875 246.652344 L 18.746094 246.652344 Z M 12.59375 271.332031 L 12.59375 258.992188 L 31.632812 258.992188 C 31.589844 259.203125 31.632812 259.414062 31.589844 259.625 C 31 263.289062 31 267.035156 31.589844 270.65625 C 31.589844 270.867188 31.589844 271.121094 31.632812 271.332031 Z M 68.1875 289.863281 C 58.371094 289.820312 49.488281 284.050781 45.527344 275.078125 C 40.054688 262.574219 45.78125 247.957031 58.289062 242.484375 C 70.796875 237.007812 85.410156 242.738281 90.886719 255.246094 C 96.359375 267.75 90.632812 282.324219 78.167969 287.753906 C 74.96875 289.144531 71.597656 289.863281 68.1875 289.863281 Z M 104.699219 271.332031 C 104.742188 271.121094 104.699219 270.910156 104.742188 270.699219 C 105.332031 267.035156 105.332031 263.289062 104.742188 259.664062 C 104.742188 259.453125 104.742188 259.203125 104.699219 258.992188 L 192.171875 258.992188 C 192.128906 259.203125 192.171875 259.414062 192.128906 259.625 C 191.539062 263.289062 191.539062 267.035156 192.128906 270.65625 C 192.171875 270.867188 192.128906 271.121094 192.171875 271.332031 Z M 228.726562 289.863281 C 218.914062 289.820312 210.027344 284.050781 206.070312 275.078125 C 200.59375 262.574219 206.28125 248 218.746094 242.527344 C 221.90625 241.136719 225.273438 240.417969 228.726562 240.460938 C 231.128906 240.460938 233.53125 240.796875 235.847656 241.515625 C 235.972656 241.558594 236.140625 241.640625 236.265625 241.683594 C 237.234375 241.976562 238.203125 242.359375 239.171875 242.777344 L 239.339844 242.863281 C 240.351562 243.324219 241.320312 243.871094 242.289062 244.503906 C 242.496094 244.628906 242.667969 244.796875 242.878906 244.925781 C 243.636719 245.472656 244.394531 246.019531 245.109375 246.609375 C 245.445312 246.902344 245.742188 247.285156 246.078125 247.578125 C 246.585938 248.082031 247.132812 248.589844 247.59375 249.136719 C 248.058594 249.683594 248.4375 250.273438 248.816406 250.820312 C 249.113281 251.242188 249.449219 251.578125 249.699219 252 C 250.164062 252.800781 250.628906 253.644531 251.007812 254.484375 C 251.132812 254.738281 251.300781 254.949219 251.382812 255.246094 C 251.804688 256.339844 252.183594 257.476562 252.4375 258.65625 C 252.5625 259.160156 252.773438 259.625 252.902344 260.085938 C 255.722656 273.394531 247.175781 286.492188 233.863281 289.273438 C 232.179688 289.695312 230.453125 289.863281 228.726562 289.863281 Z M 265.28125 271.332031 C 265.324219 271.121094 265.28125 270.910156 265.324219 270.699219 C 265.914062 267.035156 265.914062 263.289062 265.324219 259.625 C 265.28125 259.414062 265.324219 259.203125 265.28125 258.992188 L 272.484375 258.992188 C 272.441406 259.203125 272.484375 259.414062 272.441406 259.625 C 271.855469 263.289062 271.855469 267.035156 272.441406 270.65625 C 272.484375 270.867188 272.441406 271.121094 272.484375 271.332031 Z M 309.039062 289.863281 C 299.226562 289.820312 290.339844 284.050781 286.382812 275.078125 C 280.90625 262.574219 286.59375 248 299.058594 242.527344 C 302.21875 241.136719 305.585938 240.417969 309.039062 240.460938 C 314.390625 240.417969 319.609375 242.1875 323.867188 245.472656 C 327.277344 248 329.972656 251.371094 331.695312 255.246094 C 332.203125 256.507812 332.625 257.769531 332.917969 259.074219 C 333.003906 259.414062 333.171875 259.75 333.253906 260.128906 C 336.078125 273.4375 327.570312 286.535156 314.261719 289.355469 C 312.535156 289.695312 310.765625 289.863281 309.039062 289.863281 Z M 358.441406 271.332031 L 345.554688 271.332031 C 345.59375 271.121094 345.554688 270.910156 345.59375 270.699219 C 346.1875 267.035156 346.1875 263.289062 345.59375 259.625 C 345.554688 259.414062 345.59375 259.203125 345.554688 258.992188 L 358.398438 258.992188 L 358.398438 271.332031 Z M 358.441406 271.332031 " fill-opacity="1" fill-rule="nonzero"/>
  </g>
  <path fill="#ffffff" d="M 37.273438 203.402344 L 99.054688 203.402344 C 102.46875 203.402344 105.246094 200.621094 105.246094 197.210938 L 105.246094 141.617188 C 105.246094 138.207031 102.46875 135.425781 99.054688 135.425781 L 66.039062 135.425781 C 64.015625 135.425781 62.121094 136.398438 60.984375 138.039062 L 32.222656 178.886719 C 31.503906 179.941406 31.082031 181.164062 31.082031 182.425781 L 31.082031 197.125 C 31.125 200.621094 33.863281 203.402344 37.273438 203.402344 Z M 43.464844 184.449219 L 69.238281 147.808594 L 92.867188 147.808594 L 92.867188 191.0625 L 43.464844 191.0625 Z M 43.464844 184.449219 " fill-opacity="1" fill-rule="nonzero"/>
  <path fill="#ffffff" d="M 80.527344 265.140625 C 80.527344 271.957031 75 277.480469 68.1875 277.480469 C 61.371094 277.480469 55.847656 271.957031 55.847656 265.140625 C 55.847656 258.324219 61.371094 252.800781 68.1875 252.800781 C 75 252.800781 80.527344 258.324219 80.527344 265.140625 Z M 80.527344 265.140625 " fill-opacity="1" fill-rule="nonzero"/>
  <path fill="#ffffff" d="M 241.066406 265.140625 C 241.066406 271.957031 235.542969 277.480469 228.726562 277.480469 C 221.914062 277.480469 216.386719 271.957031 216.386719 265.140625 C 216.386719 258.324219 221.914062 252.800781 228.726562 252.800781 C 235.542969 252.800781 241.066406 258.324219 241.066406 265.140625 Z M 241.066406 265.140625 " fill-opacity="1" fill-rule="nonzero"/>
  <path fill="#ffffff" d="M 321.378906 265.140625 C 321.378906 271.957031 315.855469 277.480469 309.039062 277.480469 C 302.226562 277.480469 296.699219 271.957031 296.699219 265.140625 C 296.699219 258.324219 302.226562 252.800781 309.039062 252.800781 C 315.855469 252.800781 321.378906 258.324219 321.378906 265.140625 Z M 321.378906 265.140625 " fill-opacity="1" fill-rule="nonzero"/>
  <path fill="#ffffff" d="M 99.054688 221.929688 C 102.46875 221.929688 105.246094 219.152344 105.246094 215.738281 C 105.246094 212.328125 102.46875 209.550781 99.054688 209.550781 L 37.273438 209.550781 C 33.863281 209.550781 31.082031 212.328125 31.082031 215.738281 C 31.082031 219.152344 33.863281 221.929688 37.273438 221.929688 Z M 99.054688 221.929688 " fill-opacity="1" fill-rule="nonzero"/>
  <g clip-path="url(#id2)">
    <path fill="#ffffff" d="M 326.339844 190.390625 C 324.652344 195.75 317.140625 196.335938 312.847656 193.003906 L 307.726562 189.023438 L 305.195312 194.265625 C 303.113281 192.644531 302.441406 189.785156 303.589844 187.40625 L 304.152344 186.242188 L 296.667969 180.429688 L 296.664062 180.421875 L 296.664062 180.429688 L 289.179688 186.242188 L 289.742188 187.40625 C 290.890625 189.785156 290.222656 192.644531 288.136719 194.265625 L 285.605469 189.023438 L 280.484375 193.003906 C 276.191406 196.335938 268.683594 195.75 266.992188 190.390625 C 265.199219 184.71875 271.726562 183.722656 272.621094 187.800781 C 273.101562 189.980469 275.507812 191.097656 277.863281 189.300781 C 279.996094 187.671875 283.59375 184.847656 283.59375 184.847656 L 283.035156 183.6875 C 281.882812 181.308594 282.554688 178.449219 284.640625 176.828125 L 287.167969 182.066406 L 292.96875 177.558594 L 255.839844 148.707031 C 255.839844 148.707031 261.167969 147.835938 265.679688 150.132812 C 276.449219 155.605469 296.664062 174.6875 296.664062 174.6875 L 296.664062 174.691406 L 296.667969 174.6875 C 296.667969 174.6875 316.882812 155.605469 327.652344 150.132812 C 332.167969 147.835938 337.492188 148.707031 337.492188 148.707031 L 300.359375 177.558594 L 306.164062 182.066406 L 308.691406 176.828125 C 310.777344 178.449219 311.449219 181.308594 310.300781 183.6875 L 309.742188 184.847656 C 309.742188 184.847656 313.335938 187.671875 315.46875 189.300781 C 317.824219 191.097656 320.230469 189.980469 320.710938 187.800781 C 321.605469 183.722656 328.132812 184.71875 326.339844 190.390625 Z M 275.074219 125.949219 C 278.101562 124.269531 281.667969 123.566406 285.132812 124.003906 C 281.644531 125.894531 278.878906 129.089844 277.507812 132.8125 C 276.320312 136.023438 276.179688 139.601562 277.019531 142.894531 C 277.15625 143.417969 277.878906 143.46875 278.097656 142.972656 C 279.832031 139.035156 282.824219 135.652344 286.628906 133.484375 C 284.203125 138.53125 284.527344 144.785156 287.398438 149.578125 C 287.675781 150.039062 288.378906 149.882812 288.449219 149.351562 C 289.101562 144.46875 291.230469 140.058594 294.300781 136.257812 L 293.046875 163.738281 L 296.652344 166.199219 L 296.652344 166.21875 L 296.664062 166.210938 L 296.679688 166.21875 L 296.679688 166.199219 L 300.285156 163.738281 L 299.03125 136.257812 C 302.097656 140.058594 304.230469 144.46875 304.882812 149.351562 C 304.953125 149.882812 305.65625 150.039062 305.933594 149.578125 C 308.804688 144.785156 309.128906 138.53125 306.707031 133.484375 C 310.507812 135.652344 313.5 139.035156 315.234375 142.972656 C 315.453125 143.46875 316.175781 143.417969 316.3125 142.894531 C 317.152344 139.601562 317.011719 136.023438 315.828125 132.8125 C 314.453125 129.089844 311.6875 125.894531 308.199219 124.003906 C 311.664062 123.566406 315.230469 124.269531 318.257812 125.949219 C 318.746094 126.21875 319.292969 125.730469 319.070312 125.214844 C 318.039062 122.886719 316.402344 120.773438 314.332031 119.234375 C 311.792969 117.347656 308.609375 116.339844 305.445312 116.421875 C 307.914062 115.203125 310.789062 114.78125 313.511719 115.246094 C 314.058594 115.335938 314.417969 114.695312 314.035156 114.292969 C 312.441406 112.621094 310.316406 111.4375 308.035156 111.003906 C 305.191406 110.460938 302.136719 111.097656 299.738281 112.726562 C 299.128906 110.53125 296.9375 106.808594 296.679688 106.371094 L 296.679688 106.328125 C 296.679688 106.328125 296.671875 106.34375 296.664062 106.347656 C 296.660156 106.34375 296.652344 106.328125 296.652344 106.328125 L 296.652344 106.371094 C 296.394531 106.804688 294.203125 110.53125 293.59375 112.726562 C 291.199219 111.097656 288.140625 110.460938 285.296875 111.003906 C 283.015625 111.4375 280.890625 112.621094 279.296875 114.292969 C 278.914062 114.695312 279.273438 115.335938 279.820312 115.246094 C 282.546875 114.78125 285.421875 115.203125 287.886719 116.421875 C 284.722656 116.339844 281.542969 117.347656 279 119.234375 C 276.929688 120.773438 275.296875 122.886719 274.261719 125.214844 C 274.039062 125.730469 274.585938 126.21875 275.074219 125.949219 Z M 275.074219 125.949219 " fill-opacity="1" fill-rule="nonzero"/>
  </g>
</svg>